<?xml version="1.0" encoding="UTF-8" standalone="no"?>
<!-- Created with Inkscape (http://www.inkscape.org/) -->

<svg
   width="85mm"
   height="55mm"
   viewBox="0 0 321.25986 207.87401"
   version="1.1"
   id="svg5"
   sodipodi:docname="Nafnspjald.svg"
   inkscape:version="1.1.2 (b8e25be833, 2022-02-05)"
   xmlns:inkscape="http://www.inkscape.org/namespaces/inkscape"
   xmlns:sodipodi="http://sodipodi.sourceforge.net/DTD/sodipodi-0.dtd"
   xmlns="http://www.w3.org/2000/svg"
   xmlns:svg="http://www.w3.org/2000/svg">
  <sodipodi:namedview
     id="namedview7"
     pagecolor="#505050"
     bordercolor="#ffffff"
     borderopacity="1"
     inkscape:pageshadow="0"
     inkscape:pageopacity="0"
     inkscape:pagecheckerboard="1"
     inkscape:document-units="mm"
     showgrid="false"
     inkscape:zoom="4"
     inkscape:cx="110.37381"
     inkscape:cy="119.20785"
     inkscape:window-width="1920"
     inkscape:window-height="1001"
     inkscape:window-x="-9"
     inkscape:window-y="-9"
     inkscape:window-maximized="1"
     inkscape:current-layer="layer1" />
  <defs
     id="defs2" />
  <g
     inkscape:label="Layer 1"
     inkscape:groupmode="layer"
     id="layer1">
    <g
       id="g845"
       transform="translate(57.071663,-21.156697)">
      <g
         inkscape:label="Layer 1"
         id="layer1-1">
        <g
           aria-label="Haukur"
           id="text4345"
           style="font-size:40px;line-height:1.25;font-family:'Bauhaus 93';-inkscape-font-specification:'Bauhaus 93, ';fill:#ff0000;fill-opacity:0;stroke:#ff0000;stroke-width:1.00157;stroke-linecap:round;stroke-linejoin:bevel;stroke-dasharray:4.00628, 2.00314;stroke-dashoffset:1.00157">
          <path
             d="m 79.763901,100.51821 v 7.03125 H 77.55687 v 10.09766 H 69.627182 V 90.986961 h 7.929688 v 9.531249 z m 9.277344,-9.531249 V 117.64712 H 81.111557 V 90.986961 Z"
             id="path20799" />
          <path
             d="m 104.64671,110.34243 v 7.55859 q -0.89843,0.15625 -1.64062,0.15625 -4.394533,0 -7.32422,-2.89062 -2.929688,-2.89063 -2.929688,-7.24609 0,-4.23829 2.949219,-7.1875 2.96875,-2.949224 7.207029,-2.949224 4.72656,0 7.44141,2.773434 2.73437,2.75391 2.73437,7.53907 v 9.55078 h -7.30468 v -9.02344 q 0,-1.54297 -0.76172,-2.46094 -0.74219,-0.91797 -2.01172,-0.91797 -1.15235,0 -1.99219,0.83985 -0.83984,0.83984 -0.83984,1.99219 0,1.21093 0.76172,1.99218 0.76171,0.78125 1.93359,0.78125 0.95703,0 1.77734,-0.50781 z"
             id="path20801" />
          <path
             d="m 117.34203,98.447899 h 7.30468 v 10.996091 q 0,1.66016 1.38672,1.66016 1.36719,0 1.36719,-1.66016 V 98.447899 h 7.30469 v 10.859371 q 0,3.78907 -2.51953,6.40625 -2.51954,2.59766 -6.17188,2.59766 -4.16016,0 -6.69922,-3.02734 -1.97265,-2.36328 -1.97265,-6.5625 z"
             id="path20803" />
          <path
             d="m 146.26781,90.986961 v 26.660159 h -7.30469 V 90.986961 Z m 11.1914,7.1875 -3.57422,7.089849 5.3125,12.38281 h -8.08593 l -4.57032,-12.71485 3.32032,-6.757809 z"
             id="path20805" />
          <path
             d="m 160.52562,98.447899 h 7.30469 v 10.996091 q 0,1.66016 1.38672,1.66016 1.36718,0 1.36718,-1.66016 V 98.447899 h 7.30469 v 10.859371 q 0,3.78907 -2.51953,6.40625 -2.51953,2.59766 -6.17188,2.59766 -4.16015,0 -6.69921,-3.02734 -1.97266,-2.36328 -1.97266,-6.5625 z"
             id="path20807" />
          <path
             d="m 192.83031,97.979149 v 7.812501 q -0.76172,-0.42969 -1.38672,-0.42969 -1.99219,0 -1.99219,3.04688 v 9.23828 h -7.30469 v -10.64453 q 0,-4.21875 2.30469,-6.71875 2.30469,-2.519535 6.15234,-2.519535 0.85938,0 2.22657,0.214844 z"
             id="path20809" />
        </g>
      </g>
      <g
         id="layer2"
         inkscape:label="Objects">
        <path
           id="path33046"
           style="fill:#ffffff;fill-opacity:0;stroke:#000000;stroke-width:2.89134;stroke-linecap:round;stroke-linejoin:bevel;stroke-miterlimit:4;stroke-dasharray:11.5654, 5.78268;stroke-dashoffset:2.89134;stroke-opacity:1;paint-order:normal"
           inkscape:transform-center-x="0.33294074"
           inkscape:transform-center-y="-5.6183951"
           d="m 117.20606,158.08003 c 3.41072,-9.43514 7.39824,-21.27065 11.18062,-32.99824 m 10.75004,-41.323978 c -1.22107,-0.03873 -2.6832,-0.05981 -4.32152,-0.06922 C 121.68686,83.613119 100.16737,82.727757 94.873047,82.625 91.626587,82.56199 82.060841,41.4412 78.814453,41.507812 c -3.256625,0.06682 -12.154205,39.790033 -14.755859,41.75 -2.593475,1.953806 -43.124617,-0.543629 -44.064453,2.564454 -0.942801,3.117884 34.084447,23.855564 35.144531,26.935544 1.056752,3.0703 -13.843271,40.84689 -11.177734,42.70117 2.673942,1.86014 33.221693,-25.04513 36.478515,-25.10156 3.246584,-0.0562 34.179377,29.68468 36.766607,27.72261"
           sodipodi:nodetypes="cccssssssscc" />
      </g>
    </g>
    <path
       id="rect869"
       style="fill:#000000;fill-opacity:0;stroke:#000000;stroke-width:0.99625;stroke-linecap:square;stroke-linejoin:miter;stroke-dashoffset:0.997795;paint-order:fill markers stroke"
       d="M 0.49804688,0.49804688 V 208.37305 H 320.76172 V 0.49804688 Z"
       sodipodi:nodetypes="ccccc" />
    <path
       style="fill:#ff0000;fill-opacity:0;stroke:#ff0000;stroke-width:0.442205;stroke-linecap:square;stroke-linejoin:miter;stroke-miterlimit:4;stroke-dasharray:none;stroke-dashoffset:0.997795;stroke-opacity:0;paint-order:fill markers stroke"
       d="m 18.909332,171.05227 v -10.41943 h 46.983901 46.983897 v 0.54666 0.54665 l -46.453278,0.0161 -46.453282,0.0161 -0.01628,9.85665 -0.01628,9.85665 H 19.423675 18.90934 Z"
       id="path2266" />
    <path
       style="fill:none;stroke:#ff0000;stroke-width:2.13543;stroke-linecap:butt;stroke-linejoin:miter;stroke-miterlimit:4;stroke-dasharray:none;stroke-opacity:1"
       d="M 19.97057,161.75835 H 298.37683"
       id="path3682" />
    <g
       id="g4167"
       transform="matrix(0.01529151,0,0,0.01490077,29.747251,176.89829)"
       style="fill:#808080">
      <g
         id="g4113"
         style="fill:#808080">
	<path
   d="m 2.8,180.875 c 46.6,134 144.7,286.2 282.9,424.399 138.2,138.2 290.4,236.301 424.4,282.9 18.2,6.3 38.3,1.8 52,-11.8 l 92.7,-92.7 21.6,-21.6 c 19.5,-19.5 19.5,-51.2 0,-70.7 l -143.5,-143.4 c -19.5,-19.5 -51.2,-19.5 -70.7,0 l -38.899,38.9 c -20.2,20.2 -52.4,22.2 -75,4.6 -44.7,-34.8 -89,-73.899 -131.9,-116.8 -42.9,-42.9 -82,-87.2 -116.8,-131.9 -17.601,-22.6 -15.601,-54.7 4.6,-75 l 38.9,-38.9 c 19.5,-19.5 19.5,-51.2 0,-70.7 l -143.5,-143.5 c -19.5,-19.5 -51.2,-19.5 -70.7,0 l -21.6,21.6 -92.7,92.7 C 1,142.575 -3.5,162.675 2.8,180.875 Z"
   id="path4111"
   style="fill:#808080" />

</g>
      <g
         id="g4115"
         style="fill:#808080">
</g>
      <g
         id="g4117"
         style="fill:#808080">
</g>
      <g
         id="g4119"
         style="fill:#808080">
</g>
      <g
         id="g4121"
         style="fill:#808080">
</g>
      <g
         id="g4123"
         style="fill:#808080">
</g>
      <g
         id="g4125"
         style="fill:#808080">
</g>
      <g
         id="g4127"
         style="fill:#808080">
</g>
      <g
         id="g4129"
         style="fill:#808080">
</g>
      <g
         id="g4131"
         style="fill:#808080">
</g>
      <g
         id="g4133"
         style="fill:#808080">
</g>
      <g
         id="g4135"
         style="fill:#808080">
</g>
      <g
         id="g4137"
         style="fill:#808080">
</g>
      <g
         id="g4139"
         style="fill:#808080">
</g>
      <g
         id="g4141"
         style="fill:#808080">
</g>
      <g
         id="g4143"
         style="fill:#808080">
</g>
    </g>
    <g
       aria-label="898-5714"
       transform="scale(0.98382145,1.0164446)"
       id="text6323"
       style="font-size:13.8811px;line-height:1.25;font-family:'Bauhaus 93';-inkscape-font-specification:'Bauhaus 93, ';fill:#808080;stroke-width:0.347028">
      <path
         d="m 58.555771,179.61327 q 0.57612,0.59645 0.793012,1.09802 0.216892,0.50156 0.216892,1.22001 0,1.37591 -0.942125,2.29771 -0.935348,0.92179 -2.338369,0.92179 -1.4098,0 -2.351925,-0.92179 -0.935347,-0.9218 -0.935347,-2.29771 0,-0.69812 0.22367,-1.22001 0.230448,-0.5219 0.786234,-1.09802 -0.501563,-0.66423 -0.501563,-1.47758 0,-1.17257 0.779456,-1.9317 0.779456,-0.7659 1.985919,-0.7659 1.220018,0 1.999475,0.75913 0.786234,0.75912 0.786234,1.94525 0,0.79979 -0.501563,1.4708 z m -2.30448,-2.18926 q -0.305004,0 -0.528674,0.22367 -0.216893,0.22367 -0.216893,0.5219 0,0.34567 0.216893,0.56934 0.216892,0.22367 0.555786,0.22367 0.305004,0 0.521897,-0.23045 0.22367,-0.23044 0.22367,-0.54223 0,-0.32533 -0.22367,-0.54223 -0.22367,-0.22367 -0.549009,-0.22367 z m 0.02033,3.44994 q -0.460896,0 -0.793012,0.32534 -0.325338,0.31856 -0.325338,0.77268 0,0.49479 0.31856,0.8269 0.31856,0.32534 0.79979,0.32534 0.481229,0 0.79979,-0.32534 0.31856,-0.33211 0.31856,-0.8269 0,-0.44734 -0.332116,-0.77268 -0.332116,-0.32534 -0.786234,-0.32534 z"
         id="path20812" />
      <path
         d="m 65.658989,185.19146 -2.433259,-0.86079 1.802917,-5.0563 q 0.07456,-0.21689 0.07456,-0.39311 0,-0.36601 -0.271115,-0.63035 -0.271115,-0.26433 -0.643899,-0.26433 -0.372783,0 -0.63712,0.27111 -0.25756,0.26434 -0.25756,0.6439 0,0.38634 0.25756,0.65068 0.264337,0.26433 0.643898,0.26433 0.08133,0 0.25756,-0.0271 l -1.098017,2.65693 q -1.443689,-0.63034 -2.080809,-1.43691 -0.630343,-0.80657 -0.630343,-2.01303 0,-1.49791 1.02346,-2.52815 1.030238,-1.03024 2.521371,-1.03024 1.4098,0 2.460371,1.03702 1.057349,1.03024 1.057349,2.41293 0,0.64389 -0.494785,2.00625 z"
         id="path20814" />
      <path
         d="m 74.334677,179.61327 q 0.576119,0.59645 0.793012,1.09802 0.216892,0.50156 0.216892,1.22001 0,1.37591 -0.942126,2.29771 -0.935347,0.92179 -2.338368,0.92179 -1.4098,0 -2.351925,-0.92179 -0.935348,-0.9218 -0.935348,-2.29771 0,-0.69812 0.22367,-1.22001 0.230448,-0.5219 0.786235,-1.09802 -0.501564,-0.66423 -0.501564,-1.47758 0,-1.17257 0.779457,-1.9317 0.779456,-0.7659 1.985919,-0.7659 1.220018,0 1.999475,0.75913 0.786234,0.75912 0.786234,1.94525 0,0.79979 -0.501563,1.4708 z m -2.30448,-2.18926 q -0.305004,0 -0.528675,0.22367 -0.216892,0.22367 -0.216892,0.5219 0,0.34567 0.216892,0.56934 0.216893,0.22367 0.555787,0.22367 0.305004,0 0.521896,-0.23045 0.223671,-0.23044 0.223671,-0.54223 0,-0.32533 -0.223671,-0.54223 -0.22367,-0.22367 -0.549008,-0.22367 z m 0.02033,3.44994 q -0.460896,0 -0.793012,0.32534 -0.325339,0.31856 -0.325339,0.77268 0,0.49479 0.318561,0.8269 0.31856,0.32534 0.79979,0.32534 0.481229,0 0.79979,-0.32534 0.31856,-0.33211 0.31856,-0.8269 0,-0.44734 -0.332116,-0.77268 -0.332116,-0.32534 -0.786234,-0.32534 z"
         id="path20816" />
      <path
         d="m 79.106303,179.91827 v 1.79614 h -3.097491 v -1.79614 z"
         id="path20818" />
      <path
         d="m 85.565624,175.66854 v 2.65693 h -2.277367 l -0.122002,0.42023 q 1.24713,0.35923 1.843583,1.03702 0.820124,0.92179 0.820124,2.20958 0,1.36236 -1.003127,2.26382 -0.996348,0.89468 -2.514593,0.89468 -1.02346,0 -2.019809,-0.53546 v -2.27736 q 0.793012,0.38634 1.396244,0.38634 0.623565,0 0.982792,-0.28468 0.366006,-0.28467 0.366006,-0.77267 0,-0.54901 -0.562564,-0.92857 -0.555786,-0.37956 -1.37591,-0.37956 -0.311782,0 -0.826901,0.11522 l 0.996348,-4.80552 z"
         id="path20820" />
      <path
         d="m 94.065088,175.66854 -2.690819,9.25181 h -2.81282 l 2.094365,-6.59488 H 87.82266 v -2.65693 z"
         id="path20822" />
      <path
         d="m 100.14485,175.66854 v 9.25181 h -2.623042 v -9.25181 z"
         id="path20824" />
      <path
         d="m 110.12188,175.66854 v 9.25181 h -2.6027 v -7.06255 l -1.15224,2.29092 h 0.56934 v 2.01303 h -3.61261 l 2.73826,-6.49321 z"
         id="path20826" />
    </g>
    <g
       id="g6775"
       transform="matrix(0.03543602,0,0,0.03543602,123.66128,174.11901)"
       style="fill:#808080">
      <g
         id="g6702"
         style="fill:#808080">
	<g
   id="g6700"
   style="fill:#808080">
		<path
   d="m 410.272,243.145 c -3.63,-4.486 -10.211,-5.179 -14.695,-1.548 l -3.636,2.942 c -4.485,3.631 -5.177,10.211 -1.546,14.696 2.066,2.551 5.083,3.875 8.128,3.875 2.309,0 4.634,-0.762 6.568,-2.328 l 3.635,-2.942 c 4.484,-3.631 5.177,-10.21 1.546,-14.695 z"
   id="path6698"
   style="fill:#808080" />

	</g>

</g>
      <g
         id="g6708"
         style="fill:#808080">
	<g
   id="g6706"
   style="fill:#808080">
		<path
   d="m 380.363,267.357 c -3.63,-4.486 -10.211,-5.179 -14.695,-1.549 l -74.708,59.674 c -4.485,3.631 -5.177,10.21 -1.546,14.695 2.064,2.551 5.082,3.875 8.127,3.875 2.309,0 4.634,-0.762 6.568,-2.327 l 74.708,-59.674 c 4.484,-3.63 5.177,-10.208 1.546,-14.694 z"
   id="path6704"
   style="fill:#808080" />

	</g>

</g>
      <g
         id="g6714"
         style="fill:#808080">
	<g
   id="g6712"
   style="fill:#808080">
		<path
   d="M 449.742,62.685 H 62.258 C 27.929,62.685 0,90.614 0,124.942 v 262.117 c 0,34.329 27.929,62.257 62.258,62.257 h 387.484 c 34.33,0 62.258,-27.928 62.258,-62.257 V 124.942 C 512,90.614 484.072,62.685 449.742,62.685 Z M 419.912,83.582 255.859,216.19 91.806,83.582 Z m 8.214,344.836 H 83.592 V 184.382 l 165.712,133.49 c 3.826,3.082 9.284,3.082 13.11,0 l 165.711,-133.49 v 244.036 z m 62.976,-41.36 c 0,22.806 -18.554,41.359 -41.36,41.359 h -0.717 v -265.87 c 0,-4.023 -2.309,-7.688 -5.939,-9.425 -3.632,-1.738 -7.934,-1.235 -11.065,1.288 L 255.859,296.318 79.697,154.41 c -3.134,-2.523 -7.438,-3.026 -11.065,-1.288 -3.63,1.737 -5.939,5.402 -5.939,9.425 v 265.87 H 62.257 C 39.452,428.418 20.898,409.864 20.898,387.059 V 124.942 c 0,-21.626 16.688,-39.418 37.861,-41.2 l 190.532,154.012 c 1.915,1.549 4.242,2.323 6.568,2.323 2.327,0 4.653,-0.774 6.568,-2.323 L 452.983,83.721 c 21.295,1.66 38.119,19.507 38.119,41.22 z"
   id="path6710"
   style="fill:#808080" />

	</g>

</g>
      <g
         id="g6716"
         style="fill:#808080">
</g>
      <g
         id="g6718"
         style="fill:#808080">
</g>
      <g
         id="g6720"
         style="fill:#808080">
</g>
      <g
         id="g6722"
         style="fill:#808080">
</g>
      <g
         id="g6724"
         style="fill:#808080">
</g>
      <g
         id="g6726"
         style="fill:#808080">
</g>
      <g
         id="g6728"
         style="fill:#808080">
</g>
      <g
         id="g6730"
         style="fill:#808080">
</g>
      <g
         id="g6732"
         style="fill:#808080">
</g>
      <g
         id="g6734"
         style="fill:#808080">
</g>
      <g
         id="g6736"
         style="fill:#808080">
</g>
      <g
         id="g6738"
         style="fill:#808080">
</g>
      <g
         id="g6740"
         style="fill:#808080">
</g>
      <g
         id="g6742"
         style="fill:#808080">
</g>
      <g
         id="g6744"
         style="fill:#808080">
</g>
    </g>
    <g
       aria-label="Haukurholms@gmail.com"
       id="text8883"
       style="font-size:13.0489px;line-height:1.25;font-family:'Bauhaus 93';-inkscape-font-specification:'Bauhaus 93, ';fill:#808080;stroke-width:0.326224">
      <path
         d="m 150.56106,181.59304 v 2.29376 h -0.71999 v 3.29408 h -2.58684 v -8.69714 h 2.58684 v 3.1093 z m 3.02648,-3.1093 v 8.69714 h -2.58685 v -8.69714 z"
         id="path20829" />
      <path
         d="m 158.67839,184.79792 v 2.46579 q -0.29309,0.051 -0.53521,0.051 -1.43359,0 -2.38932,-0.94299 -0.95573,-0.94298 -0.95573,-2.36384 0,-1.38262 0.9621,-2.34472 0.96847,-0.9621 2.35109,-0.9621 1.54192,0 2.42756,0.90476 0.89201,0.89838 0.89201,2.45941 v 3.11568 h -2.38295 v -2.94365 q 0,-0.50335 -0.24849,-0.80281 -0.24212,-0.29947 -0.65627,-0.29947 -0.37592,0 -0.64989,0.27398 -0.27398,0.27398 -0.27398,0.6499 0,0.39503 0.24849,0.64989 0.24849,0.25486 0.63078,0.25486 0.31221,0 0.57981,-0.16566 z"
         id="path20831" />
      <path
         d="m 162.81989,180.91766 h 2.38295 v 3.58717 q 0,0.54158 0.45238,0.54158 0.44601,0 0.44601,-0.54158 v -3.58717 h 2.38295 v 3.54257 q 0,1.23608 -0.82193,2.08987 -0.82193,0.84741 -2.0134,0.84741 -1.35714,0 -2.18544,-0.98759 -0.64352,-0.77095 -0.64352,-2.14083 z"
         id="path20833" />
      <path
         d="m 172.25613,178.48374 v 8.69714 h -2.38296 v -8.69714 z m 3.65089,2.34472 -1.166,2.31287 1.73306,4.03955 h -2.63781 l -1.49094,-4.14787 1.08316,-2.20455 z"
         id="path20835" />
      <path
         d="m 176.90735,180.91766 h 2.38295 v 3.58717 q 0,0.54158 0.45238,0.54158 0.44601,0 0.44601,-0.54158 v -3.58717 h 2.38295 v 3.54257 q 0,1.23608 -0.82193,2.08987 -0.82193,0.84741 -2.0134,0.84741 -1.35714,0 -2.18544,-0.98759 -0.64352,-0.77095 -0.64352,-2.14083 z"
         id="path20837" />
      <path
         d="m 187.44586,180.76474 v 2.54862 q -0.24849,-0.14018 -0.45238,-0.14018 -0.64989,0 -0.64989,0.99396 v 3.01374 h -2.38296 v -3.47249 q 0,-1.37625 0.75184,-2.19181 0.75185,-0.82192 2.00704,-0.82192 0.28034,0 0.72635,0.0701 z"
         id="path20839" />
      <path
         d="m 190.52968,178.48374 v 2.65692 q 0.6053,-0.43963 1.21059,-0.43963 0.9175,0 1.45271,0.66264 0.54158,0.66264 0.54158,1.7904 v 4.02681 h -2.38295 v -3.3578 q 0,-0.40778 -0.0892,-0.54795 -0.0828,-0.14018 -0.33132,-0.14018 -0.40141,0 -0.40141,0.59256 v 3.45337 h -2.38295 v -8.69714 z"
         id="path20841" />
      <path
         d="m 198.13729,180.69466 q 1.35077,0 2.31287,0.97484 0.96847,0.96847 0.96847,2.32561 0,1.37625 -0.98121,2.34473 -0.97485,0.96847 -2.35747,0.96847 -1.38262,0 -2.36384,-0.96847 -0.98121,-0.97485 -0.98121,-2.34473 0,-1.39536 0.98121,-2.34472 0.98122,-0.95573 2.42118,-0.95573 z m -0.0637,2.35109 q -0.38229,0 -0.6499,0.28035 -0.2676,0.27398 -0.2676,0.67538 0,0.39504 0.2676,0.67539 0.27398,0.28034 0.6499,0.28034 0.38229,0 0.6499,-0.28034 0.27397,-0.28035 0.27397,-0.67539 0,-0.4014 -0.2676,-0.67538 -0.26761,-0.28035 -0.65627,-0.28035 z"
         id="path20843" />
      <path
         d="m 204.79555,178.48374 v 8.69714 h -2.38296 v -8.69714 z"
         id="path20845" />
      <path
         d="m 214.90717,187.18088 h -2.38295 v -3.42789 q 0,-0.39503 -0.0828,-0.54795 -0.0828,-0.15292 -0.29947,-0.15292 -0.4014,0 -0.4014,0.70724 v 3.42152 h -2.38296 v -3.42789 q 0,-0.39503 -0.0892,-0.54795 -0.0828,-0.15292 -0.29946,-0.15292 -0.39504,0 -0.39504,0.70724 v 3.42152 h -2.38295 v -3.91212 q 0,-1.07042 0.71998,-1.81589 0.71999,-0.75184 1.7458,-0.75184 1.05768,0 1.89872,0.89201 0.93662,-0.89201 1.87323,-0.89201 1.19148,0 1.91146,0.86653 0.56707,0.67538 0.56707,1.9688 z"
         id="path20847" />
      <path
         d="m 220.28475,180.91766 v 2.51038 q -0.50336,0 -0.6945,0.19115 -0.18478,0.18478 -0.23575,0.7391 -0.16566,1.84137 -1.42722,2.59958 -0.66901,0.39504 -1.89872,0.39504 h -0.33132 v -2.52313 h 0.10832 q 0.57344,0 0.81555,-0.23574 0.24849,-0.24212 0.28672,-0.84105 0.051,-0.97484 0.17841,-1.36988 0.1338,-0.39503 0.5352,-0.7837 0.70087,-0.68175 1.94332,-0.68175 z"
         id="path20849" />
      <path
         d="m 227.96882,185.95117 0.24849,0.99396 q -1.19785,0.40778 -2.58048,0.40778 -2.38295,0 -3.66363,-1.42722 -1.10864,-1.23608 -1.10864,-3.01374 0,-1.95606 1.31253,-3.27497 1.31254,-1.3189 3.25586,-1.3189 1.82225,0 3.01373,1.08953 1.19148,1.08316 1.19148,2.73976 0,1.25519 -0.75822,2.08986 -0.75821,0.8283 -1.90508,0.8283 -0.61167,0 -0.98122,-0.223 -0.36318,-0.22938 -0.36318,-0.61167 0,-0.17841 0.0701,-0.45875 l 0.24212,-0.92387 q 0.0255,-0.10832 0.0255,-0.24849 0,-0.5161 -0.50335,-0.5161 -0.3122,0 -0.54795,0.24212 -0.22937,0.23575 -0.22937,0.54795 0,0.40778 0.38866,0.40778 0.18477,0 0.35681,-0.0637 l -0.57344,1.58014 q -0.20389,0.0319 -0.33769,0.0319 -0.6945,0 -1.10865,-0.40778 -0.40778,-0.41415 -0.40778,-1.11501 0,-1.14051 0.8283,-1.98155 0.83467,-0.84742 1.96243,-0.84742 0.80919,0 1.2998,0.42053 0.49698,0.41415 0.49698,1.08953 0,0.28035 -0.0828,0.61804 l -0.19115,0.77095 -0.0382,0.1338 q -0.051,0.18478 -0.051,0.31858 0,0.30583 0.28035,0.30583 0.43326,0 0.79007,-0.61803 0.3568,-0.61804 0.3568,-1.36988 0,-1.26794 -0.88564,-2.05801 -0.87927,-0.79007 -2.30013,-0.79007 -1.52916,0 -2.52949,1.03219 -0.99396,1.02582 -0.99396,2.59959 0,1.35713 0.77732,2.29375 0.94936,1.14687 2.93091,1.14687 1.12776,0 2.31287,-0.42052 z"
         id="path20851" />
      <path
         d="m 234.21928,184.56218 v 2.18543 q -0.51609,0.19115 -0.98758,0.19115 -1.15325,0 -1.95606,-0.8729 -0.79645,-0.8729 -0.79645,-2.13446 0,-1.36351 0.96211,-2.30013 0.9621,-0.93661 2.36383,-0.93661 0.74547,0 1.42723,0.29946 0.68175,0.29946 1.07042,0.80281 0.64989,0.83467 0.64989,2.42118 v 2.08987 q 0,1.7012 -0.96847,2.75887 -0.9621,1.06405 -2.51038,1.06405 -0.4715,0 -1.19148,-0.23575 v -2.16632 q 0.46512,0.25486 0.94299,0.25486 0.64352,0 0.99395,-0.42689 0.35044,-0.42052 0.35044,-1.21059 v -2.38933 q 0,-1.00033 -0.80919,-1.00033 -0.34406,0 -0.60529,0.26761 -0.25486,0.26123 -0.25486,0.60529 0,0.36318 0.24212,0.6053 0.24849,0.24212 0.61166,0.24212 0.24212,0 0.46512,-0.11469 z"
         id="path20853" />
      <path
         d="m 247.07067,187.18088 h -2.38296 v -3.42789 q 0,-0.39503 -0.0828,-0.54795 -0.0828,-0.15292 -0.29946,-0.15292 -0.40141,0 -0.40141,0.70724 v 3.42152 h -2.38295 v -3.42789 q 0,-0.39503 -0.0892,-0.54795 -0.0828,-0.15292 -0.29946,-0.15292 -0.39504,0 -0.39504,0.70724 v 3.42152 h -2.38295 v -3.91212 q 0,-1.07042 0.71998,-1.81589 0.71999,-0.75184 1.7458,-0.75184 1.05768,0 1.89872,0.89201 0.93661,-0.89201 1.87323,-0.89201 1.19148,0 1.91146,0.86653 0.56707,0.67538 0.56707,1.9688 z"
         id="path20855" />
      <path
         d="m 251.99586,184.79792 v 2.46579 q -0.29309,0.051 -0.5352,0.051 -1.4336,0 -2.38933,-0.94299 -0.95573,-0.94298 -0.95573,-2.36384 0,-1.38262 0.9621,-2.34472 0.96848,-0.9621 2.3511,-0.9621 1.54191,0 2.42755,0.90476 0.89202,0.89838 0.89202,2.45941 v 3.11568 h -2.38296 v -2.94365 q 0,-0.50335 -0.24849,-0.80281 -0.24211,-0.29947 -0.65626,-0.29947 -0.37593,0 -0.6499,0.27398 -0.27398,0.27398 -0.27398,0.6499 0,0.39503 0.24849,0.64989 0.24849,0.25486 0.63078,0.25486 0.31221,0 0.57981,-0.16566 z"
         id="path20857" />
      <path
         d="m 258.52031,180.82846 v 6.35242 h -2.38295 v -6.35242 z m -1.1851,-2.83533 q 0.48424,0 0.83467,0.34406 0.35681,0.33769 0.35681,0.80281 0,0.49698 -0.3377,0.81556 -0.33132,0.31858 -0.85378,0.31858 -0.52247,0 -0.86016,-0.31858 -0.33132,-0.31858 -0.33132,-0.81556 0,-0.46512 0.35044,-0.80281 0.3568,-0.34406 0.84104,-0.34406 z"
         id="path20859" />
      <path
         d="m 262.305,178.48374 v 8.69714 h -2.38295 v -8.69714 z"
         id="path20861" />
      <path
         d="m 265.46529,184.32643 q 0.62441,0 1.07041,0.45238 0.45238,0.45238 0.45238,1.07679 0,0.62441 -0.446,1.06404 -0.44601,0.43327 -1.07679,0.43327 -0.65627,0 -1.08316,-0.42052 -0.42053,-0.42689 -0.42053,-1.08316 0,-0.63716 0.43964,-1.07679 0.43964,-0.44601 1.06405,-0.44601 z"
         id="path20863" />
      <path
         d="m 272.53768,184.25634 2.36384,-0.0892 q -0.10194,1.37625 -1.02581,2.2619 -0.92388,0.88564 -2.24915,0.88564 -1.40174,0 -2.37021,-0.97484 -0.96211,-0.97485 -0.96211,-2.38933 0,-1.34439 0.97485,-2.30012 0.97484,-0.95573 2.33835,-0.95573 1.19148,0 2.10261,0.75184 0.91113,0.75184 1.13413,1.91783 l -2.41481,0.0892 q -0.31221,-0.40778 -0.79007,-0.40778 -0.40778,0 -0.66901,0.26761 -0.26124,0.2676 -0.26124,0.67538 0,0.41415 0.27398,0.6945 0.28035,0.28034 0.6945,0.28034 0.60529,0 0.86015,-0.70724 z"
         id="path20865" />
      <path
         d="m 278.95382,180.69466 q 1.35077,0 2.31287,0.97484 0.96847,0.96847 0.96847,2.32561 0,1.37625 -0.98121,2.34473 -0.97485,0.96847 -2.35747,0.96847 -1.38262,0 -2.36384,-0.96847 -0.98122,-0.97485 -0.98122,-2.34473 0,-1.39536 0.98122,-2.34472 0.98122,-0.95573 2.42118,-0.95573 z m -0.0637,2.35109 q -0.38229,0 -0.6499,0.28035 -0.2676,0.27398 -0.2676,0.67538 0,0.39504 0.2676,0.67539 0.27398,0.28034 0.6499,0.28034 0.38229,0 0.64989,-0.28034 0.27398,-0.28035 0.27398,-0.67539 0,-0.4014 -0.2676,-0.67538 -0.26761,-0.28035 -0.65627,-0.28035 z"
         id="path20867" />
      <path
         d="m 291.94538,187.18088 h -2.38296 v -3.42789 q 0,-0.39503 -0.0828,-0.54795 -0.0828,-0.15292 -0.29946,-0.15292 -0.40141,0 -0.40141,0.70724 v 3.42152 h -2.38295 v -3.42789 q 0,-0.39503 -0.0892,-0.54795 -0.0828,-0.15292 -0.29946,-0.15292 -0.39504,0 -0.39504,0.70724 v 3.42152 h -2.38295 v -3.91212 q 0,-1.07042 0.71998,-1.81589 0.71999,-0.75184 1.7458,-0.75184 1.05768,0 1.89872,0.89201 0.93661,-0.89201 1.87323,-0.89201 1.19148,0 1.91146,0.86653 0.56707,0.67538 0.56707,1.9688 z"
         id="path20869" />
    </g>
  </g>
</svg>
